<svg width="18px" height="18px" viewBox="0 0 18 18" fill="none" xmlns="http://www.w3.org/2000/svg">
<g clip-path="url(#clip0)">
<path d="M17.6922 6.56824L16.8119 5.68793C16.4006 5.2766 15.7315 5.2766 15.3202 5.68793L13.4661 7.54207V1.58203C13.4661 0.709805 12.7563 0 11.884 0H1.58325C0.711025 0 0.0012207 0.709805 0.0012207 1.58203V16.418C0.0012207 17.2902 0.711025 18 1.58325 18H11.884C12.7563 18 13.4661 17.2902 13.4661 16.418V12.2333L17.6922 8.05992C18.1035 7.64859 18.1035 6.97957 17.6922 6.56824ZM11.3852 12.8057L9.79891 13.5461L10.5386 11.9612L14.4754 8.02441L15.3459 8.89488L11.3852 12.8057ZM12.4114 16.418C12.4114 16.7087 12.1748 16.9453 11.884 16.9453H1.58325C1.29251 16.9453 1.05591 16.7087 1.05591 16.418V1.58203C1.05591 1.29129 1.29251 1.05469 1.58325 1.05469H11.884C12.1748 1.05469 12.4114 1.29129 12.4114 1.58203V8.59676C9.48708 11.5211 9.67798 11.3108 9.62208 11.4311L8.22989 14.4141C8.13603 14.6152 8.17821 14.8532 8.33501 15.01C8.49181 15.1668 8.73017 15.2086 8.93091 15.1151L11.9139 13.7229C12.0232 13.6719 12.0412 13.6403 12.4114 13.2746V16.418ZM16.0957 8.15379L15.2207 7.27875L16.0662 6.43359L16.9462 7.31426L16.0957 8.15379Z" fill="#CACACA"/>
<path d="M2.81274 4.81641H10.6877C10.9788 4.81641 11.2151 4.58016 11.2151 4.28906C11.2151 3.99797 10.9788 3.76172 10.6877 3.76172H2.81274C2.52165 3.76172 2.2854 3.99797 2.2854 4.28906C2.2854 4.58016 2.5213 4.81641 2.81274 4.81641Z" fill="#CACACA"/>
<path d="M2.81274 7.62891H9.00024C9.29134 7.62891 9.52759 7.39266 9.52759 7.10156C9.52759 6.81047 9.29134 6.57422 9.00024 6.57422H2.81274C2.52165 6.57422 2.2854 6.81047 2.2854 7.10156C2.2854 7.39266 2.5213 7.62891 2.81274 7.62891Z" fill="#CACACA"/>
</g>
<defs>
<clipPath id="clip0">
<rect width="18" height="18" fill="white"/>
</clipPath>
</defs>
</svg>
