<svg width="17" height="12" viewBox="0 0 17 12" fill="none" xmlns="http://www.w3.org/2000/svg">
<path d="M0.310108 6.91752L5.18239 11.7776C5.47966 12.0741 5.96177 12.0741 6.25904 11.7776C6.55637 11.481 6.55637 11.0002 6.25904 10.7036L2.68638 7.13993L16.2387 7.13993C16.6591 7.13993 17 6.79991 17 6.38055C17 5.96124 16.6591 5.62116 16.2387 5.62116L2.68638 5.62116L6.25892 2.05744C6.55625 1.76086 6.55625 1.28007 6.25891 0.983485C6.11031 0.835314 5.91542 0.761076 5.72059 0.761076C5.52576 0.761076 5.33093 0.835314 5.18226 0.983485L0.310108 5.84357C0.0127768 6.14015 0.0127769 6.62094 0.310108 6.91752Z" fill="white"/>
</svg>
