<svg width="17" height="12" viewBox="0 0 17 12" fill="none" xmlns="http://www.w3.org/2000/svg">
<path d="M16.6899 5.08248L11.8176 0.222394C11.5203 -0.0741314 11.0382 -0.0741314 10.741 0.222394C10.4436 0.518981 10.4436 0.999765 10.741 1.29635L14.3136 4.86007H0.761293C0.340877 4.86007 0 5.20009 0 5.61945C0 6.03876 0.340877 6.37884 0.761293 6.37884H14.3136L10.7411 9.94256C10.4438 10.2391 10.4438 10.7199 10.7411 11.0165C10.8897 11.1647 11.0846 11.2389 11.2794 11.2389C11.4742 11.2389 11.6691 11.1647 11.8177 11.0165L16.6899 6.15643C16.9872 5.85985 16.9872 5.37906 16.6899 5.08248Z" fill="white"/>
</svg>
