<svg width="25" height="12" viewBox="0 0 25 12" fill="none" xmlns="http://www.w3.org/2000/svg">
<path d="M24.7957 5.6371L20.332 1.18452C20.0596 0.912858 19.6179 0.912858 19.3456 1.18452C19.0732 1.45624 19.0732 1.89671 19.3456 2.16843L22.6187 5.43334H0.69746C0.312295 5.43334 0 5.74485 0 6.12905C0 6.5132 0.312295 6.82477 0.69746 6.82477H22.6187L19.3457 10.0897C19.0733 10.3614 19.0733 10.8019 19.3457 11.0736C19.4818 11.2093 19.6604 11.2773 19.8389 11.2773C20.0174 11.2773 20.1959 11.2093 20.3321 11.0736L24.7957 6.62101C25.0681 6.34929 25.0681 5.90882 24.7957 5.6371Z" fill="#DE2627"/>
</svg>
