<svg width="19.5px" height="13px" viewBox="0 0 20 13" fill="none" xmlns="http://www.w3.org/2000/svg">
<path d="M17.5488 0H1.94478C0.872286 0 0 0.872286 0 1.94478V11.0552C0 12.1277 0.872286 13 1.94478 13H17.5534C18.6259 13 19.4982 12.1277 19.4982 11.0552V1.94432C19.4936 0.872286 18.619 0 17.5488 0ZM1.045 1.94478C1.045 1.44862 1.44862 1.045 1.94478 1.045H17.5534C18.0495 1.045 18.4532 1.44862 18.4532 1.94478V10.9828H18.4486V11.0511C18.4486 11.5473 18.045 11.9509 17.5488 11.9509H1.94478C1.44862 11.9509 1.045 11.5473 1.045 11.0511V1.94478Z" fill="#CACACA"/>
<path d="M11.7598 8.42095H17.0897C17.3779 8.42095 17.6124 8.18638 17.6124 7.89822C17.6124 7.61005 17.3779 7.37549 17.0897 7.37549H11.7598C11.4716 7.37549 11.2371 7.61005 11.2371 7.89822C11.2371 8.18638 11.4716 8.42095 11.7598 8.42095Z" fill="#CACACA"/>
<path d="M11.7598 6.05834H14.7225C15.0107 6.05834 15.2453 5.82378 15.2453 5.53561C15.2453 5.24744 15.0107 5.01288 14.7225 5.01288H11.7598C11.4716 5.01288 11.2371 5.24744 11.2371 5.53561C11.2371 5.82378 11.4716 6.05834 11.7598 6.05834Z" fill="#CACACA"/>
<path d="M3.18084 10.3355H8.41548C9.14024 10.3355 9.73307 9.74452 9.73765 9.01746V3.98669C9.73765 3.2578 9.14483 2.66452 8.41548 2.66452H3.18497C2.4602 2.66452 1.86737 3.25551 1.86279 3.98257V9.01334C1.86325 9.7381 2.45424 10.3314 3.18084 10.3355ZM7.5409 9.35602H4.15392H3.21062H3.20146C2.9811 9.35602 2.80151 9.19109 2.80151 8.9886V3.97066C2.80151 3.76816 2.9811 3.60324 3.20146 3.60324H8.43334C8.43564 3.60324 8.43747 3.60324 8.43976 3.60324C8.63538 3.60324 8.79573 3.75809 8.79939 3.95004V8.98997C8.80123 9.08618 8.76549 9.17735 8.69906 9.24652C8.64088 9.307 8.56529 9.34457 8.48374 9.35373L7.5409 9.35602Z" fill="#CACACA"/>
</svg>
