<svg width="19px" height="19px" viewBox="0 0 19 19" fill="none" xmlns="http://www.w3.org/2000/svg">
<g clip-path="url(#clip0)">
<path d="M16.5385 2.01047H15.1577V0.628562C15.1577 0.443755 15.0764 0.268419 14.9355 0.148902C14.7945 0.0294693 14.6079 -0.0219079 14.4259 0.00851612L2.3581 2.01902C2.05495 2.06955 1.83276 2.33172 1.83276 2.63906V18.3714C1.83276 18.7185 2.11421 19 2.46136 19H16.5385C16.8857 19 17.167 18.7185 17.167 18.3714V2.63906C17.1671 2.29191 16.8857 2.01047 16.5385 2.01047ZM3.09004 3.17161L13.9005 1.37056V15.8293L3.09004 17.6295V3.17161ZM15.9099 17.7428H10.0634L14.6324 16.9819C14.9355 16.9315 15.1578 16.6692 15.1578 16.3619V3.26766H15.91V17.7428H15.9099Z" fill="#CACACA"/>
<path d="M11.646 4.19084L5.15186 5.1966C4.80882 5.24973 4.57381 5.5709 4.62686 5.91395C4.67497 6.22448 4.94258 6.44641 5.24724 6.44641C5.27917 6.44641 5.31169 6.44398 5.34421 6.43895L11.8383 5.4332C12.1814 5.38006 12.4164 5.05889 12.3634 4.71576C12.3102 4.3728 11.9891 4.13771 11.646 4.19084Z" fill="#CACACA"/>
</g>
<defs>
<clipPath id="clip0">
<rect width="19" height="19" fill="white"/>
</clipPath>
</defs>
</svg>
