<svg width="9" height="6" viewBox="0 0 9 6" fill="none" xmlns="http://www.w3.org/2000/svg">
<g clip-path="url(#clip0)">
<path d="M8.79808 0.170588C8.68141 0.0607843 8.52516 0 8.3585 0C8.19183 0 8.03766 0.0607843 7.91891 0.170588L3.396 4.61765L1.07933 2.43725C0.837663 2.2098 0.443913 2.2098 0.202246 2.43725C0.0855794 2.54706 0.0209961 2.69412 0.0209961 2.85098C0.0209961 3.00784 0.0855794 3.15294 0.202246 3.26274L2.9585 5.85686C3.07516 5.96667 3.23141 6.02745 3.396 6.02745C3.56266 6.02745 3.71683 5.96667 3.83558 5.8549L8.79808 0.996078C8.91475 0.886274 8.97933 0.739216 8.97933 0.584314C8.97933 0.427451 8.91475 0.280392 8.79808 0.170588Z" fill="#453C3C"/>
</g>
<defs>
<clipPath id="clip0">
<rect width="9" height="6" fill="white"/>
</clipPath>
</defs>
</svg>
