<svg width="13" height="13" viewBox="0 0 13 13" fill="none" xmlns="http://www.w3.org/2000/svg">
<path d="M12.4811 3.97055C11.7957 2.37263 10.631 1.21052 9.01977 0.52332C8.21445 0.179861 7.37075 0.00442505 6.48932 0.00442505C5.60803 0.00442505 4.77055 0.178205 3.96613 0.52332C2.36821 1.20869 1.19836 2.37006 0.511758 3.97055C0.167704 4.77239 0 5.61244 0 6.49372C0 7.37517 0.167704 8.22219 0.511758 9.02419C1.19836 10.6247 2.36836 11.793 3.96613 12.4786C4.7707 12.8237 5.60801 12.9973 6.48932 12.9973C7.37062 12.9973 8.21445 12.8219 9.01964 12.4786C10.6309 11.7913 11.7956 10.622 12.4811 9.02419C12.8262 8.21962 13 7.37517 13 6.49372C13 5.61244 12.8264 4.77511 12.4811 3.97055ZM11.4435 9.36538C10.9332 10.2404 10.2342 10.9346 9.35382 11.4479C8.47876 11.9582 7.51997 12.2155 6.48946 12.2155C5.71477 12.2155 4.97556 12.0663 4.27182 11.7606C3.5681 11.455 2.9605 11.0534 2.45222 10.5452C1.94395 10.037 1.5394 9.42344 1.23689 8.7185C0.935278 8.01614 0.789113 7.26858 0.789113 6.49374C0.789113 5.46309 1.04234 4.50916 1.54972 3.63652C2.05891 2.7607 2.75808 2.06575 3.63225 1.55397C4.50626 1.04222 5.45883 0.786252 6.48932 0.786252C7.51997 0.786252 8.47859 1.04372 9.35367 1.55397C10.2341 2.06726 10.9316 2.76219 11.4433 3.6365C11.9551 4.51067 12.2109 5.46309 12.2109 6.49372C12.2109 7.52439 11.9568 8.48482 11.4435 9.36538Z" fill="#DE2627"/>
<path d="M6.90161 6.43603V2.7542C6.90161 2.53388 6.70964 2.35617 6.4893 2.35617C6.28324 2.35617 6.09839 2.53388 6.09839 2.7542V6.49287C6.09839 6.50001 6.11264 6.52851 6.11264 6.54975C6.09839 6.67772 6.13403 6.78433 6.21925 6.8697L8.34457 8.99486C8.48678 9.13707 8.74971 9.13707 8.89182 8.99486C9.05525 8.8314 9.04451 8.59424 8.89182 8.44047L6.90161 6.43603Z" fill="#DE2627"/>
</svg>
