<svg width="19px" height="19px" viewBox="0 0 19 19" fill="none" xmlns="http://www.w3.org/2000/svg">
<g clip-path="url(#clip0)">
<path d="M17.6839 1.28461H1.31609C0.590434 1.28461 0 1.87504 0 2.60069V13.7053C0 14.431 0.590434 15.0214 1.31609 15.0214H10.8604L10.5722 16.7789C10.518 17.1098 10.6274 17.4094 10.865 17.5805C11.1025 17.7515 11.4212 17.7607 11.7179 17.6043L13.7771 16.5205C13.8345 16.491 13.9929 16.491 14.0503 16.5205L16.1095 17.6043C16.2504 17.6785 16.3963 17.7154 16.5361 17.7154C16.6907 17.7154 16.8378 17.6702 16.9625 17.5804C17.2 17.4094 17.3094 17.1096 17.2552 16.7788L16.9671 15.0213H17.684C18.4096 15.0213 19.0001 14.4309 19.0001 13.7052V2.60069C19 1.87497 18.4096 1.28461 17.6839 1.28461ZM13.9137 12.7655C12.649 12.7655 11.62 11.7365 11.62 10.4718C11.62 9.20707 12.649 8.17804 13.9137 8.17804C15.1785 8.17804 16.2075 9.20707 16.2075 10.4718C16.2075 11.7365 15.1785 12.7655 13.9137 12.7655ZM14.5758 15.5223C14.1921 15.3203 13.6353 15.3203 13.2517 15.5223L11.7959 16.2885L12.2587 13.4654C12.7496 13.7379 13.3138 13.8935 13.9138 13.8935C14.5139 13.8935 15.078 13.7378 15.5689 13.4654L15.7493 14.566C15.7497 14.5678 15.7499 14.5698 15.7502 14.5716L16.0317 16.2886L14.5758 15.5223ZM17.8719 13.7053C17.8719 13.8072 17.7858 13.8933 17.6839 13.8933H16.7821L16.5761 12.6367C16.5753 12.6318 16.574 12.627 16.573 12.6221C17.0494 12.0341 17.3356 11.2858 17.3356 10.4718C17.3356 8.58498 15.8006 7.04997 13.9138 7.04997C12.027 7.04997 10.492 8.58498 10.492 10.4718C10.492 11.2858 10.7782 12.034 11.2546 12.6221C11.2537 12.6269 11.2523 12.6318 11.2515 12.6366L11.0453 13.8943C11.039 13.8941 11.0329 13.8933 11.0266 13.8933H1.31609C1.21418 13.8933 1.12807 13.8072 1.12807 13.7053V2.60069C1.12807 2.49879 1.21418 2.41268 1.31609 2.41268H17.6839C17.7858 2.41268 17.8719 2.49879 17.8719 2.60069V13.7053Z" fill="#CACACA"/>
<path d="M15.6892 4.53058H2.90437C2.5928 4.53058 2.34033 4.78304 2.34033 5.09462C2.34033 5.40619 2.5928 5.65865 2.90437 5.65865H15.6892C16.0008 5.65865 16.2532 5.40619 16.2532 5.09462C16.2532 4.78304 16.0008 4.53058 15.6892 4.53058Z" fill="#CACACA"/>
<path d="M8.31912 7.58905H2.90437C2.5928 7.58905 2.34033 7.84151 2.34033 8.15309C2.34033 8.46466 2.5928 8.71712 2.90437 8.71712H8.31912C8.6307 8.71712 8.88316 8.46466 8.88316 8.15309C8.88316 7.84151 8.6307 7.58905 8.31912 7.58905Z" fill="#CACACA"/>
</g>
<defs>
<clipPath id="clip0">
<rect width="19" height="19" fill="white"/>
</clipPath>
</defs>
</svg>
