<svg width="16" height="16" viewBox="0 0 16 16" fill="none" xmlns="http://www.w3.org/2000/svg">
<g clip-path="url(#clip0)">
<path d="M9.08031 15.9688H6.51304C6.08423 15.9688 5.7354 15.6206 5.7354 15.1926V9.41333H4.2376C3.80879 9.41333 3.45996 9.06506 3.45996 8.63721V6.16077C3.45996 5.73279 3.80879 5.38464 4.2376 5.38464H5.7354V4.14453C5.7354 2.91492 6.12227 1.86877 6.85404 1.11938C7.58912 0.366577 8.61639 -0.03125 9.82481 -0.03125L11.7827 -0.0280762C12.2108 -0.0273437 12.559 0.320801 12.559 0.748047V3.04736C12.559 3.47534 12.2103 3.82349 11.7816 3.82349L10.4634 3.82398C10.0614 3.82398 9.95898 3.90442 9.93709 3.92908C9.90101 3.96997 9.85808 4.08557 9.85808 4.40479V5.38452H11.6826C11.8199 5.38452 11.953 5.41834 12.0673 5.48206C12.314 5.61963 12.4674 5.87976 12.4674 6.16089L12.4664 8.63733C12.4664 9.06506 12.1176 9.41321 11.6888 9.41321H9.85808V15.1926C9.85808 15.6206 9.50913 15.9688 9.08031 15.9688ZM6.67523 15.0308H8.91813V8.99341C8.91813 8.70764 9.15113 8.47522 9.43733 8.47522H11.5266L11.5275 6.32263H9.43721C9.15101 6.32263 8.91813 6.09021 8.91813 5.80444V4.40479C8.91813 4.03833 8.95544 3.62158 9.23259 3.30835C9.56747 2.92969 10.0952 2.88599 10.4631 2.88599L11.6192 2.8855V0.909668L9.82408 0.906738C7.88205 0.906738 6.67523 2.14746 6.67523 4.14453V5.80444C6.67523 6.09009 6.44235 6.32263 6.15614 6.32263H4.39978V8.47522H6.15614C6.44235 8.47522 6.67523 8.70764 6.67523 8.99341V15.0308ZM11.7809 0.909912H11.781H11.7809Z" fill="#DE2627"/>
</g>
<defs>
<clipPath id="clip0">
<rect width="16" height="16" fill="white"/>
</clipPath>
</defs>
</svg>
