<svg width="19px" height="19px" viewBox="0 0 19 19" fill="none" xmlns="http://www.w3.org/2000/svg">
<path d="M11.2546 4.40271H3.47949C3.17186 4.40271 2.92285 4.65171 2.92285 4.95935C2.92285 5.26699 3.17186 5.51599 3.47949 5.51599H11.2546C11.5619 5.51599 11.8113 5.26699 11.8113 4.95935C11.8113 4.65171 11.5619 4.40271 11.2546 4.40271Z" fill="#CACACA"/>
<path d="M11.2546 7.00037H3.47949C3.17186 7.00037 2.92285 7.24937 2.92285 7.55701C2.92285 7.86464 3.17186 8.11365 3.47949 8.11365H11.2546C11.5619 8.11365 11.8113 7.86464 11.8113 7.55701C11.8113 7.24937 11.5619 7.00037 11.2546 7.00037Z" fill="#CACACA"/>
<path d="M15.878 12.8395C15.6383 12.6473 15.288 12.6855 15.0954 12.9252L13.6618 14.7124L12.7742 14.0693C12.5252 13.8889 12.1771 13.9446 11.9967 14.1932C11.8164 14.4422 11.8721 14.7903 12.1211 14.9707L13.4377 15.9248C13.5364 15.996 13.6503 16.0309 13.7639 16.0309C13.9272 16.0309 14.0886 15.9593 14.1984 15.8223L15.9637 13.6218C16.1563 13.382 16.1181 13.0317 15.878 12.8395Z" fill="#CACACA"/>
<path d="M17.2852 11.1306C16.5601 10.3929 15.6286 9.92787 14.6189 9.79057V2.24178C14.6189 1.00566 13.6132 0 12.3771 0H2.64998C1.41387 0 0.408203 1.00566 0.408203 2.24178V15.1362C0.408203 16.3723 1.41387 17.3779 2.64998 17.3779H10.4734C11.3536 18.4122 12.6194 18.9996 13.9887 18.9996C16.5378 18.9996 18.6115 16.9245 18.6115 14.3736C18.6118 13.1527 18.1405 12.0008 17.2852 11.1306ZM1.52148 15.1362V2.24178C1.52148 1.61945 2.02766 1.11328 2.64998 1.11328H12.3767C12.999 1.11328 13.5052 1.61945 13.5052 2.24178V9.77312C11.1825 10.0158 9.36566 11.9863 9.36566 14.3739C9.36566 15.0356 9.50371 15.6754 9.7683 16.2647H2.64998C2.02766 16.2647 1.52148 15.7585 1.52148 15.1362ZM13.9887 17.8867C12.877 17.8867 11.855 17.3765 11.1848 16.4866C10.7231 15.8739 10.4789 15.1432 10.4789 14.3739C10.4789 12.4368 12.0535 10.8612 13.9887 10.8612C14.0069 10.8612 14.0255 10.8615 14.0437 10.8619H14.0522C14.9759 10.8782 15.842 11.2508 16.491 11.911C17.1404 12.5719 17.4982 13.4466 17.4982 14.3739C17.4986 16.3111 15.924 17.8867 13.9887 17.8867Z" fill="#CACACA"/>
</svg>
