<svg width="17px" height="17px" viewBox="0 0 17 18" fill="none" xmlns="http://www.w3.org/2000/svg">
<path d="M16.832 6.29316L14.7088 4.51904V2.00604C14.7088 1.73403 14.4773 1.5148 14.1891 1.5148H11.0793L9.84514 0.483622C9.06567 -0.161882 7.93299 -0.161882 7.15351 0.487682L5.91934 1.5148H2.77302C2.48883 1.5148 2.25337 1.73403 2.25337 2.00604V4.55964L0.170701 6.29316C0.0570275 6.39059 -0.0038691 6.53675 0.000190675 6.6829L0.00425045 6.78033H0.00831022V15.6712C0.00831022 16.8364 0.950178 17.7823 2.10315 17.7823H14.8955C16.0525 17.7823 16.9903 16.8364 16.9903 15.6712V6.78033L16.9985 6.68696C17.0106 6.53269 16.9497 6.39059 16.832 6.29316ZM1.29526 6.65448L2.25743 5.85876V7.369L1.29526 6.65448ZM7.49454 1.51886L7.79902 1.2631C8.205 0.926137 8.79772 0.926137 9.20776 1.26716L9.50818 1.51886H7.49454ZM14.7088 7.40148V5.82223L15.7115 6.65448L14.7088 7.40148ZM13.706 8.15254L9.17122 11.5262C8.76931 11.8185 8.23747 11.8185 7.83962 11.5262L3.26019 8.12006V2.52163H13.7019V8.15254H13.706ZM15.9916 15.6672C15.9957 16.2761 15.5045 16.7755 14.8996 16.7796H2.10315C1.81085 16.7796 1.53479 16.6618 1.32774 16.4507C1.12069 16.2396 1.00701 15.9635 1.01107 15.6712V7.67754L7.24689 12.3341C7.99795 12.8903 9.00883 12.8903 9.75989 12.3341L15.9957 7.67754V15.6672H15.9916Z" fill="#CACACA"/>
<path d="M6.01269 6.5367H8.18061C8.45667 6.5367 8.68402 6.31341 8.68402 6.03329C8.68402 5.75316 8.46073 5.52988 8.18061 5.52988H6.01269C5.73663 5.52988 5.50928 5.75316 5.50928 6.03329C5.50928 6.31341 5.73663 6.5367 6.01269 6.5367Z" fill="#CACACA"/>
<path d="M6.01269 8.54634H10.994C11.2701 8.54634 11.4974 8.32306 11.4974 8.04293C11.4974 7.76687 11.2742 7.53952 10.994 7.53952H6.01269C5.73663 7.53952 5.50928 7.76281 5.50928 8.04293C5.50928 8.32306 5.73663 8.54634 6.01269 8.54634Z" fill="#CACACA"/>
</svg>
