<svg width="15px" height="20px" viewBox="0 0 15 20" fill="none" xmlns="http://www.w3.org/2000/svg">
<path d="M14.3042 1.71313H12.6192V0.944195L12.614 0.90933C12.5761 0.662103 12.4415 0.444036 12.2343 0.295383C12.0274 0.14673 11.7728 0.0849238 11.5183 0.121691L1.08232 1.70331L1.08395 1.71313H0.831339C0.481012 1.71313 0.196045 1.98952 0.196045 2.3293V19.225C0.196045 19.5651 0.481012 19.8415 0.831339 19.8415H14.3042C14.6545 19.8415 14.9395 19.5651 14.9395 19.2253V2.3293C14.9395 1.98952 14.6545 1.71313 14.3042 1.71313ZM11.6389 1.06591V1.71313H7.36827L11.6389 1.06591ZM13.9591 18.8906H1.17644V2.66401H13.9591V18.8906Z" fill="#CACACA"/>
<path d="M3.1401 13.4966H12.1022C12.3728 13.4966 12.5924 13.2837 12.5924 13.0212C12.5924 12.7588 12.3728 12.5458 12.1022 12.5458H3.1401C2.86951 12.5458 2.6499 12.7588 2.6499 13.0212C2.6499 13.2837 2.86951 13.4966 3.1401 13.4966Z" fill="#CACACA"/>
<path d="M3.1934 10.1664H12.1555C12.4261 10.1664 12.6457 9.95337 12.6457 9.69093C12.6457 9.42849 12.4261 9.21549 12.1555 9.21549H11.3996C11.2225 7.48681 9.82543 6.10139 8.05778 5.88269V5.44846C8.05778 5.18602 7.83818 4.97302 7.56759 4.97302C7.297 4.97302 7.07739 5.18602 7.07739 5.44846V5.88269C5.30974 6.10139 3.91268 7.48713 3.73556 9.21549H3.19308C2.92249 9.21549 2.70288 9.42849 2.70288 9.69093C2.70288 9.95337 2.92282 10.1664 3.1934 10.1664ZM7.56791 6.80313C9.02086 6.80313 10.2248 7.85543 10.4127 9.21518H4.72282C4.91105 7.85543 6.11497 6.80313 7.56791 6.80313Z" fill="#CACACA"/>
<path d="M12.1554 14.1496H3.19332C2.92273 14.1496 2.70312 14.3626 2.70312 14.625C2.70312 14.8875 2.92273 15.1005 3.19332 15.1005H12.1554C12.426 15.1005 12.6456 14.8875 12.6456 14.625C12.6456 14.3626 12.4263 14.1496 12.1554 14.1496Z" fill="#CACACA"/>
</svg>
