<svg width="15" height="15" viewBox="0 0 15 15" fill="none" xmlns="http://www.w3.org/2000/svg">
<path d="M7.5 0C10.6022 0 13.125 2.52281 13.125 5.625C13.125 9.52406 8.0475 14.6466 7.83187 14.8631C7.74 14.9541 7.62 15 7.5 15C7.38 15 7.26 14.9541 7.16813 14.8631C6.9525 14.6466 1.875 9.52406 1.875 5.625C1.875 2.52281 4.39781 0 7.5 0ZM7.5 13.8534C8.61938 12.6553 12.1875 8.60344 12.1875 5.625C12.1875 3.04031 10.0847 0.9375 7.5 0.9375C4.91531 0.9375 2.8125 3.04031 2.8125 5.625C2.8125 8.60063 6.38062 12.6553 7.5 13.8534Z" fill="#DE2627"/>
<path d="M7.5 2.8125C9.05063 2.8125 10.3125 4.07437 10.3125 5.625C10.3125 7.17562 9.05063 8.4375 7.5 8.4375C5.94938 8.4375 4.6875 7.17562 4.6875 5.625C4.6875 4.07437 5.94938 2.8125 7.5 2.8125ZM7.5 7.5C8.53406 7.5 9.375 6.65906 9.375 5.625C9.375 4.59094 8.53406 3.75 7.5 3.75C6.46594 3.75 5.625 4.59094 5.625 5.625C5.625 6.65906 6.46594 7.5 7.5 7.5Z" fill="#DE2627"/>
</svg>
