<svg width="15px" height="20px" viewBox="0 0 15 20" fill="none" xmlns="http://www.w3.org/2000/svg">
<path d="M13.7663 0H1.23368C0.553394 0 0 0.548738 0 1.2233V18.7767C0 19.4513 0.553394 20 1.23368 20H13.7663C14.4466 20 15 19.4513 15 18.7767V1.2233C15 0.548738 14.4466 0 13.7663 0ZM0.900783 1.2233C0.900783 1.04117 1.05 0.893204 1.23368 0.893204H13.7663C13.95 0.893204 14.0992 1.04117 14.0992 1.2233V18.7767C14.0992 18.9588 13.95 19.1068 13.7663 19.1068H1.23368C1.05 19.1068 0.900783 18.9588 0.900783 18.7767V1.2233Z" fill="#CACACA"/>
<path d="M3.58353 9.66988H11.4164C12.0963 9.66988 12.6497 9.12114 12.6501 8.44658V4.56308C12.6501 3.88852 12.0967 3.33978 11.4164 3.33978H3.58353C2.90325 3.33978 2.34985 3.88852 2.34985 4.56308V8.44658C2.34985 9.12114 2.90325 9.66988 3.58353 9.66988ZM11.7129 8.59532C11.6565 8.70483 11.5418 8.77668 11.4164 8.77668H9.25299L8.52844 8.05823L9.84985 6.74794L11.7129 8.59532ZM3.25064 8.44658V7.85473L5.15011 5.97124L7.97936 8.77668H3.58353C3.39985 8.77668 3.25064 8.62872 3.25064 8.44658ZM5.15011 4.89357C5.03497 4.89357 4.91944 4.93706 4.83171 5.02405L3.25064 6.59182V4.56308C3.25064 4.38095 3.39985 4.23299 3.58353 4.23299H11.4164C11.6001 4.23299 11.7493 4.38095 11.7493 4.56308V7.36852L10.1683 5.80075C9.9928 5.62677 9.7069 5.62677 9.53144 5.80075L7.89163 7.42677L5.46852 5.02405C5.38079 4.93706 5.26526 4.89357 5.15011 4.89357Z" fill="#CACACA"/>
<path d="M12.1801 12.8932H2.81978C2.57147 12.8932 2.36938 13.0936 2.36938 13.3398C2.36938 13.586 2.57147 13.7864 2.81978 13.7864H12.1801C12.4284 13.7864 12.6305 13.586 12.6305 13.3398C12.6305 13.0936 12.4284 12.8932 12.1801 12.8932Z" fill="#CACACA"/>
<path d="M10.4374 16.1165C10.6857 16.1165 10.8878 15.9161 10.8878 15.6699C10.8878 15.4237 10.6857 15.2233 10.4374 15.2233H4.5627C4.31439 15.2233 4.1123 15.4237 4.1123 15.6699C4.1123 15.9161 4.31439 16.1165 4.5627 16.1165H10.4374Z" fill="#CACACA"/>
</svg>
