<svg width="18px" height="18px" viewBox="0 0 18 18" fill="none" xmlns="http://www.w3.org/2000/svg">
<path d="M15.2578 0H3.86719C2.99486 0 2.28516 0.709699 2.28516 1.58203V2.84766H1.6875C1.39627 2.84766 1.16016 3.08377 1.16016 3.375C1.16016 3.66623 1.39627 3.90234 1.6875 3.90234H2.28516V5.66016H1.6875C1.39627 5.66016 1.16016 5.89627 1.16016 6.1875C1.16016 6.47873 1.39627 6.71484 1.6875 6.71484H2.28516V8.47266H1.6875C1.39627 8.47266 1.16016 8.70877 1.16016 9C1.16016 9.29123 1.39627 9.52734 1.6875 9.52734H2.28516V11.2852H1.6875C1.39627 11.2852 1.16016 11.5213 1.16016 11.8125C1.16016 12.1037 1.39627 12.3398 1.6875 12.3398H2.28516V14.0977H1.6875C1.39627 14.0977 1.16016 14.3338 1.16016 14.625C1.16016 14.9162 1.39627 15.1523 1.6875 15.1523H2.28516V16.418C2.28516 17.2903 2.99486 18 3.86719 18H15.2578C16.1301 18 16.8398 17.2903 16.8398 16.418V1.58203C16.8398 0.709699 16.1301 0 15.2578 0ZM3.33984 16.418V15.1523H3.9375C4.22873 15.1523 4.46484 14.9162 4.46484 14.625C4.46484 14.3338 4.22873 14.0977 3.9375 14.0977H3.33984V12.3398H3.9375C4.22873 12.3398 4.46484 12.1037 4.46484 11.8125C4.46484 11.5213 4.22873 11.2852 3.9375 11.2852H3.33984V9.52734H3.9375C4.22873 9.52734 4.46484 9.29123 4.46484 9C4.46484 8.70877 4.22873 8.47266 3.9375 8.47266H3.33984V6.71484H3.9375C4.22873 6.71484 4.46484 6.47873 4.46484 6.1875C4.46484 5.89627 4.22873 5.66016 3.9375 5.66016H3.33984V3.90234H3.9375C4.22873 3.90234 4.46484 3.66623 4.46484 3.375C4.46484 3.08377 4.22873 2.84766 3.9375 2.84766H3.33984V1.58203C3.33984 1.29125 3.57641 1.05469 3.86719 1.05469H5.66016V16.9453H3.86719C3.57641 16.9453 3.33984 16.7087 3.33984 16.418ZM15.7852 16.418C15.7852 16.7087 15.5486 16.9453 15.2578 16.9453H6.71484V1.05469H15.2578C15.5486 1.05469 15.7852 1.29125 15.7852 1.58203V16.418Z" fill="#CACACA"/>
<path d="M12.9727 2.84766H9.52734C9.23611 2.84766 9 3.08377 9 3.375V5.625C9 5.91623 9.23611 6.15234 9.52734 6.15234H12.9727C13.2639 6.15234 13.5 5.91623 13.5 5.625V3.375C13.5 3.08377 13.2639 2.84766 12.9727 2.84766ZM12.4453 5.09766H10.0547V3.90234H12.4453V5.09766Z" fill="#CACACA"/>
</svg>
