<svg width="18px" height="18px" viewBox="0 0 18 18" fill="none" xmlns="http://www.w3.org/2000/svg">
<path d="M9.28677 0H9C4.03741 0 0 4.03741 0 9C0 13.9626 4.03741 18 9 18C13.9626 18 18 13.9626 18 9V8.71323L9.28677 0ZM15.6787 8.35007C13.6991 8.28812 12.2031 7.76254 11.2203 6.77974C10.2375 5.79695 9.71195 4.30087 9.65 2.3214L15.6787 8.35007ZM9 16.6154C4.80087 16.6154 1.38463 13.1991 1.38463 9C1.38463 5.04798 4.41084 1.78998 8.26752 1.42017C8.17868 4.22807 8.84081 6.35836 10.2412 7.75881C11.5589 9.0765 13.5218 9.74106 16.0883 9.74099C16.2495 9.74099 16.4139 9.73761 16.5799 9.7323C16.2101 13.5891 12.9521 16.6154 9 16.6154Z" fill="#CACACA"/>
</svg>
