<svg width="19px" height="19px" viewBox="0 0 19 19" fill="none" xmlns="http://www.w3.org/2000/svg">
<path d="M16.5734 4.61603L12.1203 0.16291C12.0164 0.0590039 11.8743 0 11.7266 0H3.93359C3.01291 0 2.26367 0.749238 2.26367 1.66992V17.3301C2.26367 18.2508 3.01291 19 3.93359 19H15.0664C15.9871 19 16.7363 18.2508 16.7363 17.3301V5.00977C16.7363 4.85799 16.6725 4.71549 16.5734 4.61603ZM12.2832 1.90037L14.836 4.45312H12.8398C12.5329 4.45312 12.2832 4.20338 12.2832 3.89648V1.90037ZM15.0664 17.8867H3.93359C3.6267 17.8867 3.37695 17.637 3.37695 17.3301V1.66992C3.37695 1.36303 3.6267 1.11328 3.93359 1.11328H11.1699V3.89648C11.1699 4.81717 11.9192 5.56641 12.8398 5.56641H15.623V17.3301C15.623 17.637 15.3733 17.8867 15.0664 17.8867Z" fill="#CACACA"/>
<path d="M12.8398 7.49609H6.16016C5.85289 7.49609 5.60352 7.74547 5.60352 8.05273C5.60352 8.36 5.85289 8.60938 6.16016 8.60938H12.8398C13.1471 8.60938 13.3965 8.36 13.3965 8.05273C13.3965 7.74547 13.1471 7.49609 12.8398 7.49609Z" fill="#CACACA"/>
<path d="M12.8398 10.0938H6.16016C5.85289 10.0938 5.60352 10.3431 5.60352 10.6504C5.60352 10.9577 5.85289 11.207 6.16016 11.207H12.8398C13.1471 11.207 13.3965 10.9577 13.3965 10.6504C13.3965 10.3431 13.1471 10.0938 12.8398 10.0938Z" fill="#CACACA"/>
<path d="M10.6133 12.6914H6.16016C5.85289 12.6914 5.60352 12.9408 5.60352 13.248C5.60352 13.5553 5.85289 13.8047 6.16016 13.8047H10.6133C10.9205 13.8047 11.1699 13.5553 11.1699 13.248C11.1699 12.9408 10.9205 12.6914 10.6133 12.6914Z" fill="#CACACA"/>
</svg>
